<svg width="24" height="24" viewBox="0 0 24 24" fill="none" xmlns="http://www.w3.org/2000/svg">
<path d="M9.59377 3.94005C9.68418 3.39759 10.1535 3 10.7035 3H13.2974C13.8474 3 14.3167 3.39759 14.4071 3.94005L14.6206 5.2211C14.683 5.59514 14.9329 5.90671 15.2647 6.09036C15.3389 6.13142 15.4122 6.17383 15.4846 6.21757C15.8097 6.41384 16.205 6.47486 16.5606 6.34166L17.7774 5.88578C18.2924 5.69284 18.8714 5.90051 19.1464 6.37677L20.4434 8.62321C20.7183 9.09948 20.6087 9.70473 20.1841 10.0543L19.1798 10.8811C18.8873 11.1219 18.7423 11.4937 18.7493 11.8725C18.7501 11.9149 18.7504 11.9574 18.7504 12C18.7504 12.0426 18.7501 12.0851 18.7493 12.1275C18.7423 12.5063 18.8873 12.8781 19.1798 13.1189L20.1841 13.9457C20.6087 14.2953 20.7183 14.9005 20.4434 15.3768L19.1464 17.6232C18.8714 18.0995 18.2924 18.3071 17.7774 18.1142L16.5606 17.6583C16.205 17.5251 15.8097 17.5862 15.4847 17.7824C15.4122 17.8262 15.3389 17.8686 15.2647 17.9096C14.9329 18.0933 14.683 18.4049 14.6206 18.7789L14.4071 20.0599C14.3167 20.6024 13.8474 21 13.2974 21H10.7035C10.1535 21 9.68418 20.6024 9.59377 20.0599L9.38026 18.7789C9.31792 18.4049 9.06795 18.0933 8.73618 17.9096C8.66201 17.8686 8.58869 17.8262 8.51626 17.7824C8.19122 17.5862 7.79589 17.5251 7.44033 17.6583L6.22346 18.1142C5.70847 18.3072 5.12948 18.0995 4.8545 17.6232L3.55752 15.3768C3.28255 14.9005 3.3922 14.2953 3.81678 13.9457L4.82114 13.1189C5.11364 12.8781 5.25864 12.5063 5.25163 12.1275C5.25084 12.0851 5.25045 12.0426 5.25045 12C5.25045 11.9574 5.25084 11.9149 5.25163 11.8725C5.25864 11.4937 5.11364 11.1219 4.82114 10.8811L3.81678 10.0543C3.3922 9.70475 3.28255 9.09949 3.55752 8.62323L4.8545 6.37679C5.12948 5.90052 5.70847 5.69286 6.22346 5.88579L7.44031 6.34167C7.79588 6.47487 8.19121 6.41385 8.51624 6.21758C8.58868 6.17384 8.662 6.13142 8.73618 6.09036C9.06795 5.90671 9.31792 5.59514 9.38026 5.2211L9.59377 3.94005Z" stroke="white" stroke-width="1.5" stroke-linecap="round" stroke-linejoin="round"/>
<path d="M15.0002 11.9999C15.0002 13.6568 13.6571 14.9999 12.0002 14.9999C10.3434 14.9999 9.00022 13.6568 9.00022 11.9999C9.00022 10.3431 10.3434 8.99992 12.0002 8.99992C13.6571 8.99992 15.0002 10.3431 15.0002 11.9999Z" stroke="white" stroke-width="1.5" stroke-linecap="round" stroke-linejoin="round"/>
</svg>
