<svg width="24" height="24" viewBox="0 0 24 24" fill="none" xmlns="http://www.w3.org/2000/svg">
<path d="M21.75 8.99924V9.90533C21.75 10.7331 21.2955 11.494 20.5667 11.8864L14.0893 15.3743M2.25 8.99924V9.90533C2.25 10.7331 2.70448 11.494 3.43328 11.8864L9.91074 15.3743M5.25 17.8839L9.91074 15.3743L10.9333 14.8237C11.5992 14.4651 12.4008 14.4651 13.0667 14.8237L14.0893 15.3743L18.75 17.8839M21.75 19.4992C21.75 20.7419 20.7426 21.7492 19.5 21.7492H4.5C3.25736 21.7492 2.25 20.7419 2.25 19.4992L2.25 8.84315C2.25 8.01541 2.70448 7.25452 3.43328 6.86209L10.9333 2.82363C11.5992 2.46504 12.4008 2.46504 13.0667 2.82363L20.5667 6.86209C21.2955 7.25452 21.75 8.01541 21.75 8.84315V19.4992Z" stroke="white" stroke-width="1.5" stroke-linecap="round" stroke-linejoin="round"/>
</svg>
